<?xml version="1.0" encoding="UTF-8"?>
<svg xmlns="http://www.w3.org/2000/svg" version="1.1" id="Layer_1" x="0px" y="0px" width="183.2" viewBox="0 0 1200 785" height="120">
  <defs></defs>
  <path fill="#123E6D" opacity="1.000000" stroke="none" d="M 131.402 415.975 C 84.128 379.203 53.273 332.66 46.285 272.803 C 36.35 187.687 67.853 120.148 136.979 70.324 C 175.639 42.458 219.556 32.084 266.887 35.454 C 322.091 39.384 368.977 61.299 407.512 100.908 C 422.415 116.226 433.598 134.147 442.117 153.729 C 442.568 154.767 442.89 155.861 443.487 157.53 C 441.494 157.662 439.942 157.854 438.391 157.855 C 413.225 157.874 388.058 157.797 362.893 157.952 C 359.512 157.972 357.469 156.732 355.296 154.342 C 325.189 121.237 287.561 104.854 243.039 108.066 C 189.175 111.951 151.82 141.858 131.057 190.135 C 99.226 264.15 132.776 338.662 198.912 371.023 C 243.039 392.614 287.036 387.162 327.745 359.602 C 336.503 353.673 343.956 345.829 352.133 339.015 C 353.652 337.749 355.755 336.428 357.596 336.417 C 384.761 336.255 411.927 336.31 439.093 336.326 C 439.58 336.326 440.067 336.475 441.316 336.679 C 440.496 338.756 439.834 340.688 438.99 342.536 C 420.747 382.479 390.839 411.101 352.538 431.576 C 322.768 447.49 290.937 455.808 257.263 456.246 C 211.055 456.847 168.847 444.265 131.402 415.975 Z"></path>
  <path fill="#123E6D" opacity="1.000000" stroke="none" d="M 884.244 390.115 C 870.959 369.36 866.063 346.318 865.287 322.713 C 864.013 283.925 864.278 245.085 864.019 206.267 C 864.01 204.899 864.97 202.999 866.087 202.228 C 891.803 184.474 915.554 164.405 937.473 142.148 C 937.657 141.961 938.039 141.969 938.98 141.701 C 938.98 143.599 938.98 145.342 938.98 147.086 C 938.98 196.412 938.938 245.738 939.017 295.063 C 939.032 304.556 938.91 314.112 939.907 323.528 C 942.584 348.821 954.178 368.613 978.198 378.955 C 995.62 386.456 1013.436 384.891 1030.513 377.012 C 1042.516 371.475 1047.878 360.044 1053.758 349.17 C 1059.119 339.253 1061.188 328.554 1061.613 317.463 C 1061.912 309.639 1062.063 301.804 1062.066 293.974 C 1062.098 212.32 1062.086 130.666 1062.086 49.012 C 1062.086 47.043 1062.086 45.073 1062.086 42.769 C 1087.062 42.769 1111.635 42.769 1136.929 42.769 C 1136.929 44.415 1136.929 46.171 1136.929 47.927 C 1136.929 130.247 1136.908 212.568 1136.943 294.888 C 1136.952 315.092 1136 335.221 1131.565 354.991 C 1124.588 386.094 1106.43 409.753 1081.19 428.245 C 1058.396 444.947 1032.959 455.128 1004.453 456.16 C 978.415 457.103 954.468 449.662 932.268 436.404 C 912.808 424.782 896.663 409.618 884.244 390.115 Z"></path>
  <path fill="#10BADE" opacity="1.000000" stroke="none" d="M 566.923 126.589 C 566.923 170.018 566.923 212.947 566.923 256.874 C 541.866 259.139 517.271 261.362 492.235 263.626 C 492.235 192.387 492.235 122.356 492.235 51.989 C 516.912 51.989 541.48 51.989 566.923 51.989 C 566.923 76.645 566.923 101.367 566.923 126.589 Z"></path>
  <path fill="#F6972B" opacity="1.000000" stroke="none" d="M 566.095 266.939 C 636.427 257.576 703.822 239.617 767.943 209.808 C 833.179 179.48 891.254 138.6 944.892 91.075 C 956.237 81.023 967.211 70.552 978.366 60.286 C 979.525 59.219 980.757 58.231 981.955 57.207 C 982.363 57.488 982.771 57.77 983.179 58.051 C 982.271 60.021 981.549 62.103 980.428 63.943 C 946.592 119.481 903.502 166.326 849.647 203.054 C 802.963 234.893 752.283 257.823 697.461 271.62 C 669.806 278.581 641.802 283.192 613.391 285.774 C 583.929 288.451 554.421 289.057 525.055 286.271 C 500.922 283.981 477.006 279.413 452.995 275.846 C 452.237 275.733 451.495 275.519 450.781 274.996 C 489.257 274.426 527.544 271.979 566.095 266.939 Z"></path>
  <path fill="#10BBDE" opacity="1.000000" stroke="none" d="M 725.319 275.194 C 745.736 267.97 765.782 260.906 786.057 253.762 C 786.057 320.64 786.057 388.076 786.057 455.935 C 761.385 455.935 736.714 455.935 711.474 455.935 C 711.474 453.826 711.474 451.873 711.474 449.919 C 711.474 395.137 711.557 340.354 711.338 285.573 C 711.317 280.447 712.622 277.905 717.719 277.259 C 720.17 276.949 722.541 276.009 725.319 275.194 Z"></path>
  <path fill="#10BBDE" opacity="1.000000" stroke="none" d="M 566.924 311.597 C 566.924 359.898 566.924 407.701 566.924 455.929 C 541.909 455.929 517.221 455.929 492.231 455.929 C 492.231 401.789 492.231 347.757 492.231 293.882 C 517.073 295.51 541.595 297.116 566.924 298.775 C 566.924 302.594 566.924 306.847 566.924 311.597 Z"></path>
  <path fill="#10BADE" opacity="1.000000" stroke="none" d="M 756.794 51.654 C 766.778 51.654 776.262 51.654 786.277 51.654 C 786.36 53.518 786.492 55.123 786.493 56.728 C 786.504 98.535 786.454 140.343 786.586 182.15 C 786.598 185.853 785.48 187.863 782.096 189.37 C 760.071 199.178 738.122 209.157 716.138 219.058 C 714.947 219.594 713.665 219.93 711.909 220.538 C 711.909 164.154 711.909 108.195 711.909 51.654 C 726.744 51.654 741.519 51.654 756.794 51.654 Z"></path>
  <path fill="#133F6D" opacity="1.000000" stroke="none" d="M 863.952 92.589 C 863.952 75.803 863.952 59.517 863.952 42.83 C 888.943 42.83 913.617 42.83 938.984 42.83 C 938.984 51.686 938.422 60.648 939.15 69.503 C 939.816 77.603 937.142 83.02 930.784 88.053 C 909.669 104.771 888.977 122.023 868.108 139.052 C 867.099 139.876 865.954 140.534 863.952 141.895 C 863.952 125.102 863.952 109.095 863.952 92.589 Z"></path>
  <path fill="#1FBFE0" opacity="1.000000" stroke="none" d="M 839.392 577.508 C 840.578 579.946 841.287 582.321 842.799 583.949 C 845.849 587.23 851.291 586.222 851.823 582.021 C 852.65 575.482 852.297 568.786 852.263 562.157 C 852.259 561.438 851.056 560.726 850.053 559.615 C 853.065 559.128 855.789 558.688 859.453 558.095 C 859.453 563.755 858.951 568.894 859.622 573.875 C 860.103 577.449 861.496 581.318 863.673 584.136 C 866.173 587.374 871.963 585.969 872.315 582.075 C 873.001 574.495 872.611 566.814 872.543 559.176 C 872.537 558.525 871.603 557.883 870.816 556.871 C 873.721 556.383 876.291 555.951 879.344 555.438 C 879.344 564.467 880.024 573.113 879.126 581.593 C 878.427 588.19 868.573 590.757 862.34 586.595 C 861.117 585.779 860.079 584.685 858.966 583.729 C 850.352 590.037 845.986 590.211 838.462 584.578 C 829.367 590.463 822.299 590.325 814.355 584.107 C 804.627 590.67 794.814 590.553 787.124 583.785 C 778.264 590.272 773.755 590.29 766.607 583.867 C 757.875 590.067 753.335 590.232 747.694 585.794 C 741.173 586.866 735.984 588.332 730.768 588.432 C 723.16 588.577 715.533 587.414 707.914 587.414 C 700.306 587.413 692.701 588.382 685.088 588.519 C 674.99 588.7 672.378 585.933 672.358 575.858 C 672.343 568.36 672.376 560.862 672.346 553.365 C 672.329 549.117 673.879 544.052 666.382 543.486 C 666.633 542.921 666.884 542.356 667.134 541.791 C 670.999 541.608 674.863 541.425 679.307 541.214 C 679.307 553.04 679.303 564.328 679.308 575.616 C 679.312 585.137 679.755 585.584 689.073 585.588 C 693.513 585.589 697.954 585.588 703.589 585.588 C 695.703 576.814 686.408 568.664 698.838 558.441 C 705.59 552.887 717.122 554.757 722.019 560.946 C 725.184 564.946 725.803 570.193 722.945 574.472 C 720.297 578.437 717.048 582 712.672 585.595 C 714.806 585.595 716.939 585.595 719.073 585.595 C 723.571 585.594 728.071 585.635 732.569 585.583 C 737.965 585.521 739.708 583.87 739.811 578.388 C 739.91 573.07 739.753 567.746 739.703 561.83 C 740.871 561.648 743.422 561.252 746.646 560.75 C 746.646 565.538 746.163 569.897 746.797 574.086 C 747.318 577.53 748.538 581.242 750.586 583.985 C 753.096 587.347 758.91 586.273 759.322 582.428 C 760.056 575.566 759.554 568.569 759.459 561.63 C 759.453 561.208 758.482 560.799 757.24 559.81 C 760.73 559.204 763.407 558.739 766.861 558.138 C 766.861 563.499 766.459 568.321 766.993 573.037 C 767.39 576.545 768.512 580.2 770.279 583.224 C 771.14 584.697 774.227 585.468 776.282 585.423 C 777.558 585.396 779.796 583.306 779.873 582.036 C 780.324 574.586 780.319 567.104 780.303 559.634 C 780.302 558.838 779.234 558.044 778.382 556.862 C 781.364 556.406 784.046 555.996 787.305 555.498 C 787.305 562.21 787.242 568.344 787.32 574.476 C 787.439 583.853 794.796 588.78 803.545 585.204 C 804.863 584.666 806.514 582.918 806.573 581.661 C 806.919 574.356 806.887 567.03 806.825 559.712 C 806.818 558.879 805.826 558.055 805.033 556.828 C 807.899 556.379 810.574 555.959 813.917 555.435 C 813.917 561.967 813.737 567.93 813.96 573.877 C 814.287 582.604 818.949 586.798 826.935 585.471 C 828.613 585.192 831.165 583.64 831.403 582.328 C 832.595 575.737 833.004 569.038 830.962 562.042 C 833.136 561.714 835.685 561.33 839.278 560.788 C 839.278 566.569 839.278 571.838 839.392 577.508 M 699.726 568.101 C 700.38 574.385 704.803 581.737 708.005 581.861 C 711.934 582.013 716.877 574.989 717.063 568.99 C 717.264 562.526 714.762 558.834 709.839 558.325 C 703.921 557.713 700.931 560.359 699.726 568.101 Z"></path>
  <path fill="#1D4774" opacity="1.000000" stroke="none" d="M 450.764 706.746 C 447.198 707.144 443.631 707.542 439.525 708 C 439.525 717.897 439.525 727.959 439.525 738.36 C 436.611 738.36 434.213 738.36 431.341 738.36 C 431.341 728.285 431.341 718.191 431.341 707.744 C 427.106 707.744 423.326 707.744 419.029 707.744 C 419.029 717.595 419.029 727.826 419.029 738.377 C 416.14 738.377 413.751 738.377 410.861 738.377 C 410.861 730.899 410.861 723.523 410.861 716.147 C 406.69 726.538 397.595 724.842 389.094 724.96 C 389.094 729.757 389.094 734.028 389.094 738.454 C 386.204 738.454 383.777 738.454 380.851 738.454 C 380.851 735.523 380.851 732.833 380.851 729.3 C 373.051 742.718 356.207 743.766 349.143 731.394 C 349.268 729.631 349.748 727.61 349.92 727.636 C 352.149 727.971 355.081 727.896 356.387 729.286 C 359.893 733.018 364.006 734.935 368.103 732.858 C 369.729 732.034 371.444 729.9 371.627 728.202 C 371.763 726.933 369.771 724.849 368.251 724.126 C 365.916 723.015 363.157 722.817 360.605 722.128 C 355.698 720.802 351.078 719.055 349.34 713.548 C 349.281 704.177 353.019 699.895 361.601 699.499 C 371.804 699.029 377.354 702.948 378.074 711.361 C 374.479 712.027 371.32 712.686 369.067 708.254 C 367.698 705.558 361.096 705.432 358.498 707.349 C 355.774 709.359 355.989 712.62 359.248 714.057 C 361.956 715.252 364.931 715.869 367.82 716.62 C 373.242 718.031 378.391 719.748 380.793 725.961 C 380.793 717.657 380.793 709.354 380.793 700.22 C 391.557 702.278 404.242 695.346 410.638 711.464 C 410.638 707.125 410.638 704.236 410.638 700.949 C 424.121 700.949 437.24 700.949 450.811 700.949 C 450.811 702.695 450.811 704.314 450.793 706.373 C 450.775 706.812 450.764 706.746 450.764 706.746 M 388.936 711.213 C 388.936 713.483 388.936 715.753 388.936 718.792 C 392.901 718.382 396.467 718.568 399.568 717.457 C 401.095 716.909 402.622 713.925 402.549 712.109 C 402.488 710.582 400.352 708.377 398.699 707.855 C 396.277 707.09 393.444 707.362 390.833 707.634 C 390.117 707.709 389.566 709.362 388.936 711.213 Z"></path>
  <path fill="#1D4673" opacity="1.000000" stroke="none" d="M 451.148 707.086 C 450.764 706.746 450.775 706.812 450.75 706.833 C 451.512 706.061 452.756 705.389 453.001 704.454 C 453.81 701.371 455.52 700.59 458.684 700.391 C 462.898 700.126 464.423 701.842 465.634 705.531 C 469.136 716.209 473.029 726.759 477.965 737.212 C 477.965 725.119 477.965 713.027 477.965 700.753 C 480.96 700.753 483.247 700.753 486.1 700.753 C 486.1 710.86 486.1 720.914 486.1 731.249 C 492.758 731.249 498.868 731.249 504.938 731.249 C 504.494 727.191 503.573 722.953 503.659 718.735 C 503.9 706.917 510.12 699.943 520.257 699.506 C 531.985 699.002 537.978 704.274 539.742 717.535 C 539.705 720.429 539.722 722.488 539.74 724.547 C 538.742 731.479 535.708 737.172 528.562 738.978 C 520.071 741.124 511.993 740.364 505.671 731.57 C 505.264 734.469 504.99 736.426 504.706 738.447 C 495.95 738.447 487.33 738.437 478.711 738.457 C 477.461 738.46 476.204 738.55 474.962 738.695 C 470.888 739.168 467.412 738.987 466.679 733.65 C 466.533 732.59 464.592 731.162 463.334 730.994 C 460.393 730.602 457.347 730.692 454.38 730.971 C 453.349 731.068 451.703 732.178 451.565 733.026 C 450.554 739.217 446.499 739.407 441.32 738.338 C 444.733 728.007 448.133 717.716 451.148 707.086 M 524.662 732.655 C 532.473 728.811 534.893 715.185 528.592 709.268 C 527.041 707.811 524.55 706.83 522.4 706.633 C 515.49 705.999 511.52 711.108 511.517 720.101 C 511.513 729.484 515.251 733.344 524.662 732.655 M 461.613 717.263 C 460.879 715.161 460.145 713.059 459.411 710.956 C 459.077 710.934 458.743 710.911 458.409 710.889 C 457.052 715.234 455.695 719.58 454.287 724.087 C 457.858 724.087 460.541 724.087 463.548 724.087 C 462.902 721.777 462.374 719.89 461.613 717.263 Z"></path>
  <path fill="#1FBFE0" opacity="1.000000" stroke="none" d="M 383.665 571.85 C 381.491 568.493 379.475 565.469 377.159 561.994 C 384.282 557.833 391.227 554.555 399.482 556.323 C 404.899 557.483 409.014 560.366 410.371 566.059 C 411.689 571.588 409.307 575.807 405.118 579.171 C 402.945 580.916 400.633 582.487 398.498 585.255 C 400.141 585.373 401.783 585.582 403.427 585.593 C 409.425 585.633 415.423 585.58 421.421 585.613 C 426.731 585.642 430.296 583.249 431.97 578.169 C 432.699 575.955 433.383 573.726 434.077 571.502 C 436.585 563.47 441.268 560.09 449.16 560.623 C 455.605 561.058 460.76 566.408 461.98 573.926 C 463.136 581.056 459.347 588.041 452.828 590.488 C 446.957 592.692 441.457 592.228 436.448 588.022 C 435.494 587.22 433.747 586.572 432.636 586.867 C 420.485 590.094 408.269 588.689 396.042 587.726 C 394.278 587.586 392.487 587.799 390.708 587.84 C 383.248 588.01 375.722 588.806 368.359 588.037 C 365.423 587.73 361.96 584.487 360.295 581.663 C 357.019 576.105 354.86 569.893 352.176 563.981 C 351.56 562.625 350.897 561.179 349.876 560.155 C 349.064 559.342 347.671 559.108 346.536 558.617 C 346.256 559.788 345.5 561.095 345.789 562.102 C 346.565 564.808 347.777 567.39 348.837 570.012 C 351.252 575.982 353.679 581.947 356.329 588.475 C 345.725 588.475 335.922 588.794 326.152 588.358 C 320.108 588.088 317.817 584.948 317.661 578.778 C 317.607 576.614 317.683 574.446 317.64 572.281 C 317.555 568.026 319.154 562.862 311.309 562.689 C 311.592 562.13 311.874 561.57 312.157 561.01 C 315.996 560.693 319.835 560.377 324.425 559.998 C 324.425 566.445 324.371 572.388 324.44 578.329 C 324.511 584.424 325.703 585.561 331.87 585.602 C 337.026 585.636 342.182 585.609 348.301 585.609 C 346.553 581.329 345.042 577.579 343.49 573.845 C 342.276 570.925 340.811 568.092 339.827 565.099 C 338.819 562.036 336.808 557.574 340.647 556.279 C 344.036 555.136 348.578 556.525 352.316 557.722 C 353.904 558.23 354.981 560.986 355.868 562.915 C 358.442 568.51 360.752 574.226 363.262 579.85 C 365.064 583.886 368.019 585.978 372.709 585.664 C 378.415 585.282 384.147 585.305 390.745 585.13 C 388.014 580.022 385.918 576.103 383.665 571.85 M 438.555 576.79 C 438.11 578.993 436.55 582.278 437.435 583.189 C 439.811 585.635 443.109 588.168 446.281 588.524 C 448.506 588.773 452.128 586.035 453.369 583.698 C 456.316 578.145 455.797 572.053 452.621 566.593 C 449.798 561.738 444.107 562.032 441.705 567.095 C 440.372 569.904 439.728 573.039 438.555 576.79 M 399.27 578.44 C 403.919 572.696 404.465 565.176 400.516 561.307 C 397.039 557.9 389.257 558.667 383.726 562.976 C 387.232 569.222 390.733 575.458 394.383 581.96 C 396.301 580.601 397.502 579.752 399.27 578.44 Z"></path>
  <path fill="#1FBFE0" opacity="1.000000" stroke="none" d="M 85.799 588.591 C 83.501 588.558 81.648 588.691 79.84 588.464 C 73.712 587.698 71.056 584.738 70.999 578.507 C 70.92 569.842 70.9 561.175 71.009 552.512 C 71.061 548.37 71.674 544.121 65.225 543.591 C 65.426 543.161 65.626 542.732 65.827 542.302 C 69.497 542.302 73.166 542.302 77.72 542.302 C 77.72 544.375 77.72 547.113 77.72 549.852 C 77.721 559.184 77.69 568.516 77.733 577.848 C 77.762 584.265 79.21 585.61 85.801 585.598 C 92.252 585.587 93.689 584.19 93.755 577.689 C 93.806 572.69 93.899 567.685 93.704 562.694 C 93.628 560.747 92.813 558.83 92.285 556.697 C 94.535 556.346 97.258 555.92 100.602 555.397 C 100.602 562.176 100.412 568.316 100.648 574.439 C 100.966 582.671 105.554 586.801 113.106 585.415 C 114.92 585.082 117.646 582.852 117.765 581.325 C 118.318 574.207 118.165 567.03 118.088 559.876 C 118.078 558.95 117.038 558.035 116.299 556.828 C 119.133 556.362 121.699 555.94 124.951 555.406 C 124.951 561.899 124.781 567.862 124.992 573.81 C 125.298 582.474 129.949 586.692 137.967 585.484 C 139.661 585.229 142.199 583.801 142.536 582.459 C 144.179 575.911 144.493 569.232 142.152 562.072 C 144.452 561.711 146.955 561.318 150.213 560.807 C 150.213 565.625 149.828 569.945 150.339 574.155 C 150.724 577.329 151.742 580.705 153.482 583.325 C 154.45 584.781 157.559 585.581 159.542 585.343 C 160.986 585.17 163.177 582.889 163.289 581.416 C 163.764 575.126 163.669 568.785 163.562 562.467 C 163.548 561.626 162.277 560.805 161.262 559.58 C 164.244 559.129 166.964 558.717 170.453 558.189 C 170.453 563.545 170.096 568.349 170.574 573.069 C 170.914 576.427 171.82 580.016 173.557 582.833 C 174.551 584.446 177.861 585.635 179.85 585.311 C 181.42 585.054 183.58 582.272 183.717 580.478 C 184.208 574.015 184.032 567.494 183.915 560.999 C 183.891 559.656 183.042 558.329 182.496 556.776 C 184.979 556.363 187.56 555.934 190.63 555.424 C 190.63 564.18 191.175 572.514 190.467 580.739 C 189.834 588.096 179.418 591.098 172.938 586.232 C 171.903 585.454 171.019 584.475 170.095 583.617 C 161.71 590.084 157.594 590.228 149.428 584.483 C 140.959 590.582 133.038 590.393 125.474 583.909 C 116.975 590.545 108.886 590.552 100.594 583.733 C 96.941 588.495 91.675 588.768 85.799 588.591 Z"></path>
  <path fill="#1ABDDF" opacity="1.000000" stroke="none" d="M 1012.883 601.672 C 1012.312 601.303 1012.085 600.96 1011.859 600.617 C 1023.461 596.651 1025.636 587.257 1025.66 576.632 C 1025.671 572.132 1025.801 567.627 1025.598 563.137 C 1025.507 561.134 1024.726 559.162 1024.152 556.726 C 1026.263 556.394 1028.911 555.977 1031.954 555.498 C 1031.954 565.69 1031.954 575.409 1031.954 585.595 C 1035.954 585.595 1039.808 585.989 1043.515 585.423 C 1045.282 585.153 1047.373 583.376 1048.25 581.717 C 1049.7 578.972 1050.404 575.801 1051.216 572.754 C 1053.631 563.698 1058.026 560.113 1066.273 560.638 C 1073.217 561.081 1078.621 567.115 1079.425 575.325 C 1080.309 584.352 1082.467 586.134 1091.381 585.656 C 1094.76 585.474 1097.033 583.976 1097.116 580.68 C 1097.403 569.198 1097.449 557.708 1097.414 546.221 C 1097.41 545.116 1096.209 544.014 1095.346 542.538 C 1097.988 542.114 1100.702 541.679 1104.215 541.115 C 1104.215 546.634 1104.22 551.557 1104.214 556.48 C 1104.205 563.812 1104.25 571.144 1104.155 578.475 C 1104.092 583.344 1101.919 587.006 1096.942 587.934 C 1090.35 589.163 1083.675 589.849 1077.821 584.399 C 1074.071 588.835 1069.581 592.357 1063.47 591.599 C 1060.318 591.208 1056.904 590.129 1054.383 588.296 C 1052.115 586.646 1050.749 586.93 1048.289 587.467 C 1043.816 588.445 1039.075 588.13 1034.488 588.698 C 1033.009 588.882 1030.825 589.825 1030.391 590.965 C 1027.331 598.995 1021.543 602.271 1012.883 601.672 M 1057.17 571.6 C 1056.483 573.992 1055.76 576.375 1055.123 578.78 C 1054.753 580.174 1053.81 582.4 1054.35 582.884 C 1056.856 585.128 1059.575 587.763 1062.647 588.524 C 1064.661 589.022 1068.08 587.154 1069.692 585.314 C 1073.599 580.855 1073.219 570.75 1069.624 566.044 C 1066.502 561.957 1061.57 562.238 1059.099 566.712 C 1058.384 568.006 1057.971 569.467 1057.17 571.6 Z"></path>
  <path fill="#F69B32" opacity="1.000000" stroke="none" d="M 877.744 621.839 C 892.871 623.937 900.894 630.961 903.048 643.622 C 905.219 656.385 896.191 669.246 883.303 671.747 C 869.036 674.517 855.88 666.24 852.87 652.599 C 849.971 639.46 858.083 626.047 870.926 622.865 C 873.014 622.348 875.187 622.171 877.744 621.839 M 885.461 664.146 C 891.071 661.032 894.879 656.676 895.841 650 C 883.539 650 871.827 650 860.071 650 C 861.788 662.23 872.701 668.477 885.461 664.146 M 895.178 641.097 C 890.727 631.773 883.714 627.504 875.123 628.888 C 867.286 630.15 861.24 636.285 860.115 644.597 C 871.444 644.597 882.708 644.633 893.969 644.48 C 894.483 644.473 894.974 642.76 895.178 641.097 Z"></path>
  <path fill="#1FBFE0" opacity="1.000000" stroke="none" d="M 514.138 561.928 C 508.552 559.525 505.093 560.271 501.626 564.845 C 499.748 567.323 498.403 570.205 496.535 573.387 C 495.577 572.032 494.698 570.79 493.126 568.567 C 497.079 565.124 500.504 560.811 504.969 558.569 C 511.401 555.339 518.991 558.031 522.987 565.042 C 526.451 571.118 528.33 578.098 531.259 585.572 C 533.827 585.572 537.801 585.731 541.756 585.525 C 545.313 585.34 546.588 582.605 546.633 579.619 C 546.801 568.631 546.783 557.638 546.661 546.649 C 546.646 545.387 545.535 544.139 544.74 542.482 C 547.241 542.096 549.946 541.679 553.452 541.138 C 553.452 547.345 553.452 552.94 553.451 558.535 C 553.45 565.03 553.529 571.526 553.422 578.02 C 553.314 584.668 549.941 588.454 543.319 588.515 C 523.503 588.698 503.683 588.703 483.867 588.514 C 476.959 588.448 474.038 585.045 473.991 578.068 C 473.934 569.575 473.977 561.081 473.975 552.588 C 473.974 545.909 473.973 545.909 468.871 541.975 C 472.641 541.76 476.411 541.545 480.767 541.296 C 480.767 553.294 480.763 564.575 480.768 575.857 C 480.772 584.85 481.519 585.608 490.349 585.61 C 500.641 585.612 510.934 585.611 521.726 585.611 C 521.441 576.759 520.783 568.626 514.138 561.928 Z"></path>
  <path fill="#F69D37" opacity="1.000000" stroke="none" d="M 489.854 629.902 C 487.052 629.02 484.344 628.599 481.319 628.128 C 481.319 626.267 481.319 624.355 481.319 622.062 C 486.269 622.062 491.16 622.062 496.706 622.062 C 496.706 628.956 496.706 635.843 496.706 643.11 C 499.892 643.11 502.439 643.11 505.639 643.11 C 505.639 636.14 505.639 629.244 505.639 622.025 C 511.175 622.025 516.077 622.025 521.377 622.025 C 521.377 623.981 521.377 625.886 521.377 628.397 C 518.845 628.528 516.12 628.668 513.088 628.825 C 513.088 640.975 513.088 652.875 513.088 665.313 C 515.819 665.473 518.543 665.633 521.549 665.809 C 521.549 667.996 521.549 669.884 521.549 672.066 C 516.37 672.066 511.456 672.066 505.856 672.066 C 505.856 664.872 505.856 657.83 505.856 650.497 C 502.607 650.497 500.042 650.497 496.983 650.497 C 496.983 657.695 496.983 664.626 496.983 671.956 C 491.464 671.956 486.432 671.956 481.138 671.956 C 481.138 669.954 481.138 668.18 481.138 665.827 C 483.871 665.677 486.603 665.527 489.948 665.343 C 489.948 653.54 489.948 641.951 489.854 629.902 Z"></path>
  <path fill="#1D4774" opacity="1.000000" stroke="none" d="M 667.798 738.487 C 667.359 737.113 666.556 735.743 666.538 734.364 C 666.423 725.38 666.479 716.394 666.479 707.409 C 666.479 705.823 666.479 704.237 666.479 702.65 C 666.036 702.56 665.592 702.469 665.149 702.379 C 664.564 703.788 663.901 705.17 663.408 706.61 C 660.286 715.738 657.136 724.856 654.145 734.026 C 653.22 736.863 652.501 738.884 648.616 738.89 C 644.571 738.896 644.128 736.454 643.234 733.796 C 640.16 724.652 637.061 715.516 633.95 706.384 C 633.54 705.178 633.004 704.014 631.55 702.924 C 631.55 714.654 631.55 726.384 631.55 738.407 C 628.466 738.407 626.059 738.407 623.358 738.407 C 623.358 725.954 623.358 713.558 623.358 700.56 C 628.556 700.56 633.626 700.374 638.662 700.709 C 639.738 700.78 641.161 702.575 641.613 703.86 C 643.432 709.034 644.908 714.328 646.568 719.56 C 647.092 721.211 647.792 722.806 649.575 724.438 C 652.032 716.621 654.489 708.805 656.995 700.832 C 660.376 700.832 663.623 700.832 667.335 701.258 C 667.798 713.952 667.798 726.219 667.798 738.487 Z"></path>
  <path fill="#F69B33" opacity="1.000000" stroke="none" d="M 1000.037 671.551 C 987.431 667.185 980.334 657.281 981.072 645.58 C 981.774 634.464 989.818 624.937 1000.603 622.533 C 1011.112 620.191 1019.745 623.569 1026.17 631.902 C 1032.652 640.309 1033.507 649.742 1028.36 659.051 C 1023.374 668.072 1015.354 672.562 1004.885 672.197 C 1003.397 672.145 1001.92 671.819 1000.037 671.551 M 1014.016 630.53 C 1012.111 629.982 1010.238 629.21 1008.295 628.925 C 1001.071 627.865 993.784 631.934 990.271 638.816 C 986.963 645.295 988.275 654.263 993.33 659.727 C 998.479 665.291 1006.098 667.08 1012.884 664.093 C 1019.292 661.272 1023.223 656.416 1023.953 649.321 C 1024.785 641.247 1021.633 635.096 1014.016 630.53 Z"></path>
  <path fill="#F69B33" opacity="1.000000" stroke="none" d="M 669.898 668.8 C 656.267 675.538 642.536 671.805 635.304 659.658 C 628.827 648.779 631.892 634.286 642.279 626.669 C 653.099 618.734 667.523 620.534 676.362 630.922 C 684.873 640.925 684.251 655.618 674.861 664.864 C 673.449 666.254 671.776 667.379 669.898 668.8 M 644.707 660.193 C 651.641 666.268 658.977 667.198 666.194 662.917 C 672.881 658.95 676.219 651.165 674.669 643.148 C 673.242 635.761 666.931 629.93 659.235 628.886 C 652.281 627.943 645.446 631.458 641.689 637.911 C 637.773 644.635 638.7 652.753 644.707 660.193 Z"></path>
  <path fill="#F69B32" opacity="1.000000" stroke="none" d="M 266.348 658.009 C 259.228 670.298 246.554 675.309 234.764 670.763 C 223.107 666.268 216.385 653.892 219.013 641.765 C 222.056 627.721 235.567 619.276 249.634 622.626 C 263.068 625.824 271.485 639.907 268.019 653.452 C 267.651 654.893 267.03 656.269 266.348 658.009 M 260.909 642.28 C 259.013 635.953 255.106 631.424 248.707 629.54 C 240.548 627.137 232.941 630.238 228.477 637.444 C 224.005 644.662 224.988 653.76 230.914 660 C 236.34 665.714 244.489 667.133 251.498 663.585 C 258.985 659.794 262.77 651.707 260.909 642.28 Z"></path>
  <path fill="#F69B32" opacity="1.000000" stroke="none" d="M 381.661 639.011 C 385.462 653.288 379.466 665.687 366.645 670.684 C 354.944 675.244 341.482 670.088 335.561 658.778 C 329.014 646.27 334.177 630.426 346.802 624.288 C 360.228 617.76 375.239 623.952 381.661 639.011 M 371.173 634.768 C 364.142 628.189 355.788 626.848 348.912 631.197 C 341.471 635.902 338.252 644.583 340.867 652.892 C 343.271 660.527 350.801 665.97 358.708 665.473 C 365.788 665.029 370.982 661.351 373.997 655.024 C 377.304 648.083 376.285 641.433 371.173 634.768 Z"></path>
  <path fill="#F69F3A" opacity="1.000000" stroke="none" d="M 792.796 672.371 C 787.466 672.37 782.622 672.565 777.814 672.231 C 776.61 672.147 774.543 670.372 774.53 669.353 C 774.319 653.722 774.383 638.088 774.383 622.059 C 776.867 622.059 778.906 622.059 781.45 622.059 C 781.45 636.373 781.45 650.631 781.45 665.591 C 790.024 665.591 798.126 665.728 806.209 665.397 C 807.106 665.36 808.592 662.663 808.62 661.178 C 808.825 650.022 808.732 638.86 808.733 627.7 C 808.733 625.906 808.732 624.112 808.732 621.992 C 811.131 621.992 813.036 621.992 815.287 621.992 C 815.287 638.613 815.287 655.163 815.287 672.371 C 807.845 672.371 800.57 672.371 792.796 672.371 Z"></path>
  <path fill="#1FBFE0" opacity="1.000000" stroke="none" d="M 616.772 588.606 C 610.949 588.594 605.614 588.758 600.295 588.529 C 593.266 588.227 590.41 585.157 590.224 578.199 C 590.179 576.535 590.234 574.869 590.208 573.204 C 590.14 568.718 591.878 563.403 584.382 562.29 C 584.583 561.872 584.784 561.455 584.985 561.037 C 588.741 560.711 592.497 560.385 597.213 559.975 C 597.213 565.908 597.196 571.465 597.217 577.021 C 597.247 584.694 598.166 585.603 605.871 585.607 C 610.366 585.609 614.861 585.579 619.356 585.545 C 619.678 585.543 619.998 585.39 621.016 585.129 C 618.846 580.061 616.712 575.084 614.585 570.105 C 613.996 568.727 613.251 567.387 612.882 565.951 C 612.014 562.563 609.453 558.789 613.422 555.933 C 616.677 553.59 624.691 555.638 626.743 559.495 C 629.782 565.206 632.199 571.251 634.806 577.187 C 638.169 584.844 640.279 586.479 648.013 585.41 C 650.06 585.128 653.243 582.66 653.404 580.959 C 654.059 574.03 653.806 567.008 653.712 560.023 C 653.699 559.05 652.703 558.09 651.989 556.813 C 654.77 556.365 657.341 555.95 660.389 555.459 C 660.389 564.379 660.476 572.811 660.299 581.238 C 660.271 582.573 659.283 584.083 658.345 585.172 C 652.95 591.437 636.632 589.405 633.053 581.965 C 630.095 575.818 627.603 569.446 624.586 563.331 C 623.567 561.264 621.572 559.679 620.023 557.874 C 619.302 558.279 618.581 558.684 617.86 559.089 C 620.191 569.08 625.575 578.092 628.969 588.606 C 624.743 588.606 621.005 588.606 616.772 588.606 Z"></path>
  <path fill="#1C4673" opacity="1.000000" stroke="none" d="M 137.797 731.954 C 138.38 730.457 139.442 728.97 139.47 727.464 C 139.63 718.675 139.548 709.881 139.548 701.027 C 144.966 699.689 148.792 700.439 151.499 705.9 C 154.474 711.902 158.465 717.401 162.794 724.377 C 162.794 715.73 162.794 708.542 162.794 700.732 C 166.101 700.732 168.991 700.732 172.338 701.163 C 172.794 703.489 172.794 705.385 172.793 707.281 C 172.061 708.632 170.725 709.97 170.696 711.336 C 170.505 720.286 170.598 729.243 170.598 738.077 C 165.596 739.698 162.527 738.548 160.068 734.059 C 156.581 727.692 152.332 721.743 147.44 715.742 C 147.44 723.183 147.44 730.623 147.44 738.528 C 134.744 738.528 122.725 738.535 110.705 738.483 C 110.433 738.482 110.163 737.808 110.418 737.018 C 118.094 736.589 125.245 736.594 132.397 736.586 C 135.508 736.583 138.167 736.027 137.797 731.954 Z"></path>
  <path fill="#22C0E0" opacity="1.000000" stroke="none" d="M 223.513 599.057 C 216.123 594.815 212.659 588.473 211.7 580.607 C 211.419 578.303 211.42 575.962 211.337 573.637 C 211.184 569.308 213.113 563.979 205.333 563.371 C 205.559 562.784 205.784 562.196 206.009 561.608 C 209.844 561.365 213.679 561.122 218.198 560.835 C 218.198 566.616 217.856 571.76 218.297 576.836 C 218.709 581.577 219.127 586.608 220.999 590.872 C 225.225 600.501 238.811 601.646 244.201 592.729 C 250.593 582.154 248.042 570.468 247.278 558.714 C 249.096 558.414 251.66 557.991 254.844 557.465 C 254.844 563.077 254.763 568.199 254.862 573.318 C 255.042 582.64 259.257 586.672 268.232 585.397 C 270.236 585.113 273.293 582.528 273.464 580.77 C 274.118 574.008 273.885 567.15 273.75 560.333 C 273.728 559.221 272.53 558.132 271.738 556.802 C 274.471 556.376 277.208 555.95 280.379 555.456 C 280.379 564.374 280.819 572.843 280.096 581.212 C 279.894 583.551 276.628 586.771 274.134 587.545 C 267.76 589.522 261.901 590.216 254.372 583.158 C 251.704 591.075 247.993 598.557 239.365 600.261 C 234.449 601.232 229.033 599.668 223.513 599.057 Z"></path>
  <path fill="#F69E39" opacity="1.000000" stroke="none" d="M 426.619 665.696 C 427.96 667.795 429.116 669.586 430.326 671.461 C 424.178 673.191 423.657 672.992 420.472 668.062 C 417.431 663.354 414.37 658.658 410.686 652.983 C 407.05 658.553 403.674 663.191 400.887 668.158 C 398.628 672.184 395.753 673.31 390.962 671.706 C 394.855 665.704 398.28 659.637 402.487 654.171 C 406.272 649.253 406.808 645.346 402.636 640.23 C 398.263 634.87 394.914 628.674 390.718 622.231 C 404.184 622.231 416.984 622.231 430.549 622.231 C 426.113 629.132 422.042 635.903 417.503 642.345 C 415.145 645.692 414.874 648.249 417.419 651.623 C 420.714 655.992 423.454 660.78 426.619 665.696 M 412.055 639.271 C 414.435 635.589 416.815 631.908 419.517 627.729 C 413.279 627.729 408.107 627.729 401.915 627.729 C 404.811 632.164 407.192 635.895 409.703 639.536 C 409.963 639.912 410.99 639.759 412.055 639.271 Z"></path>
  <path fill="#1D4673" opacity="1.000000" stroke="none" d="M 953.689 724.631 C 954.14 723.244 954.95 721.865 954.98 720.468 C 955.119 714.016 955.041 707.56 955.041 701.124 C 960.741 699.485 964.386 700.748 967.045 706.039 C 969.926 711.771 973.73 717.038 978.124 722.38 C 978.124 715.275 978.124 708.17 978.124 700.818 C 981.069 700.818 983.324 700.818 985.837 700.818 C 985.837 713.317 985.837 725.732 985.837 738.134 C 980.94 739.97 977.902 738.25 975.394 733.783 C 971.859 727.489 967.69 721.551 962.745 715.731 C 962.745 723.234 962.745 730.738 962.745 738.465 C 960.038 738.465 957.931 738.465 955.438 738.465 C 955.155 735.599 954.869 732.705 953.904 729.459 C 953.38 727.616 953.534 726.124 953.689 724.631 Z"></path>
  <path fill="#1D4774" opacity="1.000000" stroke="none" d="M 590.066 700.73 C 596.113 699.266 599.939 701.506 602.695 707.153 C 605.336 712.566 608.941 717.509 613.228 722.304 C 613.228 715.272 613.228 708.24 613.228 700.885 C 615.952 700.885 618.159 700.885 620.651 700.885 C 620.651 713.38 620.651 725.765 620.651 738.18 C 615.963 739.681 612.915 738.544 610.459 734.044 C 606.982 727.676 602.719 721.738 597.756 715.789 C 597.756 723.255 597.756 730.721 597.756 738.436 C 594.812 738.436 592.564 738.436 589.819 738.436 C 589.819 735.347 589.819 732.404 589.886 728.635 C 589.991 718.783 590.029 709.756 590.066 700.73 Z"></path>
  <path fill="#1B4572" opacity="1.000000" stroke="none" d="M 1043.103 700.75 C 1049.149 699.266 1052.982 701.479 1055.751 707.137 C 1058.431 712.614 1062.085 717.614 1066.271 722.639 C 1066.271 715.487 1066.271 708.334 1066.271 700.876 C 1069.091 700.876 1071.323 700.876 1074.027 700.876 C 1074.027 711.409 1073.991 721.864 1074.062 732.319 C 1074.073 734.075 1074.542 735.829 1075.298 737.75 C 1075.796 737.916 1075.796 738.272 1075.796 738.272 C 1069.306 740.056 1065.09 737.9 1062.031 731.701 C 1059.224 726.01 1055.265 720.888 1050.808 715.774 C 1050.808 723.247 1050.808 730.72 1050.808 738.607 C 1048.123 738.607 1046.019 738.607 1043.492 738.07 C 1043.08 725.272 1043.092 713.011 1043.103 700.75 Z"></path>
  <path fill="#194471" opacity="1.000000" stroke="none" d="M 953.721 724.277 C 953.534 726.124 953.38 727.616 953.484 729.337 C 952.317 735.506 948.754 738.375 941.846 738.607 C 935.858 738.809 929.857 738.632 923.388 738.104 C 922.939 725.285 922.963 712.986 922.987 700.687 C 929.274 700.641 935.563 700.508 941.849 700.579 C 946.427 700.631 950.484 702.117 952.264 706.719 C 953.945 711.063 953.217 715.112 949.658 717.621 C 951.134 719.891 952.444 721.906 953.721 724.277 M 946.326 725.492 C 942.352 718.907 936.219 723.239 930.858 721.755 C 930.858 725.541 930.858 728.601 930.858 732.098 C 934.245 732.098 937.371 732.223 940.483 732.066 C 944.082 731.884 946.47 730.228 946.326 725.492 M 939.08 707.479 C 936.342 707.479 933.604 707.479 930.974 707.479 C 930.974 710.513 930.974 712.88 930.974 715.518 C 934.118 715.518 936.897 715.54 939.676 715.512 C 942.548 715.482 945.098 714.828 945.139 711.291 C 945.178 707.852 942.67 707.477 939.08 707.479 Z"></path>
  <path fill="#F69D37" opacity="1.000000" stroke="none" d="M 153.958 628.699 C 152.394 629.582 150.397 630.446 150.379 631.348 C 150.165 642.486 150.239 653.629 150.239 665.313 C 160.378 665.313 170.123 665.313 180.472 665.313 C 180.578 667.716 180.661 669.604 180.763 671.935 C 168.233 671.935 156.027 671.935 143.452 671.935 C 143.452 655.379 143.452 638.833 143.452 621.986 C 155.722 621.986 167.807 621.986 180.323 621.986 C 180.323 624.018 180.323 626.038 180.323 628.697 C 171.667 628.697 163.055 628.697 153.958 628.699 Z"></path>
  <path fill="#F69B33" opacity="1.000000" stroke="none" d="M 617.571 672.343 C 607.784 672.342 598.47 672.326 589.155 672.353 C 587.026 672.359 585.15 672.37 585.16 669.371 C 585.212 653.758 585.184 638.145 585.184 622.117 C 597.713 622.117 609.886 622.117 622.416 622.117 C 622.416 624.054 622.416 625.963 622.416 628.565 C 612.638 628.565 602.765 628.565 592.602 628.565 C 592.602 641.129 592.602 653.017 592.602 665.442 C 602.525 665.442 612.263 665.442 622.379 665.442 C 622.379 667.859 622.379 669.747 622.379 672.051 C 620.937 672.148 619.491 672.246 617.571 672.343 Z"></path>
  <path fill="#1DBEE0" opacity="1.000000" stroke="none" d="M 1006.346 581.327 C 1006.897 583.944 1007.447 586.105 1008.082 588.599 C 996.185 588.599 984.208 588.688 972.234 588.536 C 969.224 588.498 967.61 589.067 966.411 592.268 C 963.592 599.799 957.904 602.363 946.784 601.266 C 960.177 597.123 962.473 587.376 962.265 576.184 C 962.182 571.688 962.37 567.184 962.189 562.693 C 962.114 560.827 961.397 558.988 960.885 556.757 C 962.944 556.407 965.51 555.971 968.553 555.453 C 968.553 565.529 968.553 575.244 968.553 585.293 C 978.65 585.293 988.397 585.293 999.407 585.293 C 998.828 579.115 999.095 572.726 997.465 566.864 C 995.385 559.387 988.088 559.789 981.537 558.907 C 991.368 555.438 999.459 550.23 1003.973 540.725 C 1010.281 545.241 1010.329 547.333 1004.2 551.528 C 1002.557 552.652 1000.803 553.632 999.035 554.553 C 997.276 555.471 995.435 556.231 993.658 557.047 C 993.713 557.485 993.666 558.016 993.803 558.069 C 1004.374 562.165 1007.58 570.292 1006.346 581.327 Z"></path>
  <path fill="#184370" opacity="1.000000" stroke="none" d="M 864.243 720.533 C 869.695 725.874 866.516 732.2 867.615 738.292 C 864.785 738.292 862.398 738.292 859.489 738.292 C 859.489 735.546 859.367 732.754 859.517 729.977 C 859.763 725.422 857.445 723.626 853.187 723.664 C 850.723 723.686 848.257 723.668 845.272 723.668 C 845.272 728.857 845.272 733.6 845.272 738.499 C 842.441 738.499 840.147 738.499 837.599 738.499 C 837.599 725.904 837.599 713.484 837.599 700.648 C 844.709 700.648 851.675 700.31 858.587 700.771 C 862.941 701.062 866.4 703.627 867.814 708.092 C 869.342 712.919 867.932 716.927 864.243 720.533 M 854.042 707.447 C 851.148 707.447 848.254 707.447 845.469 707.447 C 845.469 711.162 845.469 714.056 845.469 717.365 C 848.771 717.365 851.719 717.417 854.664 717.351 C 857.905 717.279 860.706 716.487 860.78 712.469 C 860.854 708.514 858.398 707.371 854.042 707.447 Z"></path>
  <path fill="#F69C34" opacity="1.000000" stroke="none" d="M 96.758 646.589 C 96.758 638.148 96.758 630.207 96.758 621.986 C 109.385 621.986 121.452 621.986 133.879 621.986 C 133.879 624.137 133.879 626.199 133.879 628.687 C 123.915 628.687 114.162 628.687 104.074 628.687 C 104.074 640.998 104.074 652.891 104.074 665.44 C 113.891 665.44 123.76 665.44 133.92 665.44 C 133.92 667.993 133.92 669.893 133.92 672.071 C 121.553 672.071 109.498 672.071 96.758 672.071 C 96.758 663.601 96.758 655.345 96.758 646.589 Z"></path>
  <path fill="#1C4673" opacity="1.000000" stroke="none" d="M 346.503 730.479 C 340.956 738.911 334.174 741.638 324.319 739.382 C 323.675 739.235 323.045 739.012 322.426 738.777 C 314.224 735.673 310.226 726.785 311.886 715.362 C 313.255 705.946 319.053 700.124 327.642 699.54 C 338.367 698.812 344.209 702.796 347.464 713.748 C 347.227 719.842 346.865 725.161 346.503 730.479 M 332.656 706.76 C 328.431 706.004 324.395 706.563 322.05 710.424 C 318.536 716.212 318.382 722.545 321.451 728.531 C 324.344 734.175 333.031 734.665 337.25 729.766 C 342.474 723.702 340.332 711.06 332.656 706.76 Z"></path>
  <path fill="#1D4774" opacity="1.000000" stroke="none" d="M 694.788 732.04 C 695.272 730.444 696.15 728.854 696.175 727.251 C 696.313 718.486 696.241 709.718 696.241 700.606 C 703.541 700.606 710.393 700.022 717.066 700.862 C 720.226 701.26 723.043 704.381 726.308 706.93 C 728.087 712.642 727.032 716.969 723.694 719.488 C 724.661 723.091 725.602 725.919 726.141 728.823 C 726.556 731.059 726.465 733.389 726.6 735.677 C 725.462 741.059 721.624 737.947 719.315 738.424 C 718.4 733.662 718.821 728.185 716.296 725.199 C 714.369 722.919 708.71 723.794 704.246 723.204 C 704.246 728.805 704.246 733.411 704.246 738.725 C 701.147 738.579 698.423 738.45 695.234 737.925 C 694.776 735.699 694.782 733.87 694.788 732.04 M 711.158 717.356 C 712.313 717.336 713.475 717.388 714.623 717.284 C 717.873 716.989 719.909 715.462 719.692 711.907 C 719.486 708.534 717.321 707.468 714.299 707.474 C 711.042 707.479 707.785 707.475 704.461 707.475 C 704.461 711.021 704.461 714.027 704.461 717.357 C 706.667 717.357 708.467 717.357 711.158 717.356 Z"></path>
  <path fill="#F69D36" opacity="1.000000" stroke="none" d="M 709.936 624.513 C 712.686 620.837 717.948 620.385 719.338 623.603 C 726.192 639.475 732.842 655.435 739.686 671.653 C 734.807 673.24 732.138 672.298 730.252 667.459 C 725.661 655.686 720.485 644.142 715.219 631.739 C 714.253 633.261 713.572 634.071 713.173 635.001 C 708.58 645.716 703.778 656.351 699.583 667.221 C 697.754 671.961 695.212 673.451 689.969 671.682 C 696.595 656.047 703.2 640.464 709.936 624.513 Z"></path>
  <path fill="#1B4572" opacity="1.000000" stroke="none" d="M 203.731 723.585 C 203.731 715.786 203.731 708.487 203.731 700.69 C 211.114 700.69 218.243 700.313 225.305 700.83 C 229.644 701.147 233.049 703.874 234.291 708.408 C 235.555 713.024 234.43 716.973 230.293 720.163 C 236.014 725.213 233.051 731.848 233.961 738.281 C 231.257 738.281 228.873 738.281 225.835 738.281 C 225.835 735.615 225.675 732.832 225.871 730.075 C 226.193 725.526 223.988 723.648 219.687 723.671 C 217.222 723.684 214.756 723.673 211.737 723.673 C 211.737 728.766 211.737 733.502 211.737 738.448 C 208.914 738.448 206.647 738.448 203.731 738.448 C 203.731 733.617 203.731 728.851 203.731 723.585 M 221.737 717.311 C 225.26 717.081 227.393 715.525 227.039 711.671 C 226.687 707.844 223.963 707.44 220.926 707.469 C 217.982 707.497 215.038 707.475 212.049 707.475 C 212.049 711.005 212.049 714.011 212.049 717.337 C 215.256 717.337 218.054 717.337 221.737 717.311 Z"></path>
  <path fill="#214A76" opacity="1.000000" stroke="none" d="M 780.632 737.565 C 780.632 727.804 780.632 718.044 780.632 707.829 C 776.175 707.829 772.285 707.829 767.96 707.829 C 767.96 717.599 767.96 727.831 767.96 738.386 C 765.158 738.386 762.776 738.386 760.441 738.386 C 759.865 735.743 759.313 733.206 758.318 730.362 C 757.938 728.385 758 726.716 758.062 725.048 C 758.644 724.165 759.712 723.292 759.729 722.398 C 759.868 715.3 759.806 708.197 759.806 700.824 C 773.319 700.824 786.308 700.824 799.41 700.824 C 799.876 702.536 800.333 704.212 801.316 706.112 C 801.704 706.659 801.565 706.982 801.426 707.305 C 797.243 707.305 793.059 707.305 788.412 707.305 C 788.412 717.493 788.412 727.025 788.011 737.115 C 787.341 737.957 787.072 738.241 786.803 738.524 C 785.404 738.579 784.005 738.635 782.061 738.382 C 781.22 737.904 780.926 737.734 780.632 737.565 Z"></path>
  <path fill="#1B4572" opacity="1.000000" stroke="none" d="M 284.578 700.557 C 285.742 701.55 287.008 702.499 287.086 703.539 C 287.349 707.003 287.186 710.5 287.186 714.363 C 291.985 714.363 296.546 714.363 301.628 714.363 C 301.628 710.11 301.628 705.714 301.628 700.94 C 304.509 700.94 306.896 700.94 309.641 700.94 C 309.641 713.201 309.641 725.583 309.641 738.335 C 307.38 738.335 304.983 738.335 302.018 738.335 C 302.018 733.081 302.018 727.685 302.018 722 C 296.906 722 292.343 722 287.25 722 C 287.25 727.547 287.25 732.95 287.25 738.523 C 284.429 738.523 282.135 738.523 279.475 738.523 C 279.475 726.057 279.475 713.69 279.475 700.835 C 280.974 700.745 282.555 700.65 284.578 700.557 Z"></path>
  <path fill="#1D4673" opacity="1.000000" stroke="none" d="M 243.921 725.662 C 243.92 727.761 243.92 729.392 243.92 731.458 C 251.014 731.458 257.762 731.458 264.794 731.458 C 264.794 733.985 264.794 736.075 264.794 738.441 C 255.34 738.441 245.971 738.441 236.356 738.441 C 236.356 725.793 236.356 713.408 236.356 700.787 C 245.586 700.787 254.517 700.787 263.769 700.787 C 263.769 702.833 263.769 704.9 263.769 707.44 C 257.314 707.44 250.912 707.44 244.223 707.44 C 244.223 710.142 244.223 712.392 244.223 715.165 C 250.016 715.165 255.921 715.165 262.225 715.165 C 262.225 717.685 262.225 719.703 262.225 722.311 C 257.163 722.311 252.209 722.131 247.286 722.443 C 246.112 722.517 245.041 724.234 243.921 725.662 Z"></path>
  <path fill="#1C4673" opacity="1.000000" stroke="none" d="M 1001.463 727.518 C 1005.092 727.272 1008.04 726.8 1009.977 730.909 C 1011.448 734.027 1018.313 734.383 1021.422 732.368 C 1024.698 730.246 1024.629 726.094 1021.046 724.522 C 1018.499 723.404 1015.642 722.98 1012.909 722.301 C 1004.129 720.121 1000.504 716.029 1001.435 709.302 C 1002.346 702.723 1007.326 699.344 1015.9 699.487 C 1024.337 699.628 1028.521 702.919 1030.477 711.255 C 1026.977 711.872 1023.824 713.06 1021.439 708.602 C 1019.851 705.634 1013.284 705.287 1010.512 707.356 C 1007.834 709.356 1008.065 712.745 1011.313 714.068 C 1014.675 715.439 1018.307 716.141 1021.808 717.176 C 1029.437 719.432 1032.388 723.058 1031.754 729.343 C 1031.141 735.432 1026.481 739.685 1019.171 739.611 C 1014.671 739.566 1009.908 738.743 1005.781 737.026 C 1002.277 735.569 1000.044 732.075 1001.463 727.518 Z"></path>
  <path fill="#1D4673" opacity="1.000000" stroke="none" d="M 556.962 718.593 C 556.962 712.798 556.962 707.003 556.962 700.883 C 559.807 700.883 562.21 700.883 565.276 700.883 C 565.276 708.945 565.181 717.04 565.309 725.131 C 565.397 730.652 568.034 733.495 572.509 733.373 C 577.027 733.249 579.34 730.709 579.475 725.464 C 579.582 721.307 579.497 717.145 579.497 712.986 C 579.497 709.007 579.497 705.029 579.497 700.62 C 582.116 700.62 584.403 700.62 587.143 701.127 C 587.656 710.617 587.717 719.601 587.778 728.584 C 584.898 737.968 579.216 741.142 568.014 739.625 C 560.556 738.615 557.213 733.996 557.19 723.741 C 557.232 721.57 557.097 720.082 556.962 718.593 Z"></path>
  <path fill="#1B4572" opacity="1.000000" stroke="none" d="M 871.107 700.66 C 880.051 700.578 888.524 700.578 897.38 700.578 C 897.38 702.819 897.38 704.852 897.38 707.406 C 890.998 707.406 884.591 707.406 877.915 707.406 C 877.915 710.148 877.915 712.407 877.915 715.187 C 883.74 715.187 889.636 715.187 895.873 715.187 C 895.873 717.738 895.873 719.774 895.873 722.203 C 889.854 722.203 884.089 722.203 877.983 722.203 C 877.983 725.331 877.983 728.085 877.983 731.371 C 884.47 731.371 891.196 731.371 898.325 731.371 C 898.325 733.928 898.325 735.97 898.325 738.362 C 889.079 738.362 879.706 738.362 870.637 738.362 C 870.637 725.729 870.637 713.235 871.107 700.66 Z"></path>
  <path fill="#1D4673" opacity="1.000000" stroke="none" d="M 758.085 724.707 C 758 726.716 757.938 728.385 757.947 730.552 C 757.532 735.7 754.263 738.056 750.332 738.98 C 743.469 740.593 736.583 740.823 730.287 735.243 C 729.005 732.523 728.131 730.332 727.099 727.749 C 731.441 727.302 734.479 726.637 736.714 730.838 C 738.477 734.151 745.422 734.523 748.594 732.296 C 751.784 730.056 751.574 725.974 747.939 724.418 C 745.376 723.321 742.525 722.88 739.79 722.199 C 729.714 719.689 727.192 715.804 729.133 705.728 C 733.606 698.83 740.388 698.667 747.296 699.999 C 753.015 701.102 756.596 704.817 757.407 711.218 C 753.864 711.877 750.709 713.106 748.343 708.587 C 746.798 705.637 740.206 705.301 737.433 707.361 C 734.768 709.341 735.002 712.71 738.225 714.061 C 741.256 715.331 744.587 715.865 747.737 716.878 C 751.982 718.243 756.525 719.28 758.085 724.707 Z"></path>
  <path fill="#194471" opacity="1.000000" stroke="none" d="M 1076.201 738.457 C 1075.796 738.272 1075.796 737.916 1075.79 737.737 C 1079.803 725.955 1083.753 714.325 1087.959 702.789 C 1088.342 701.739 1090.38 700.677 1091.634 700.694 C 1093.908 700.727 1097.731 700.963 1098.197 702.165 C 1102.801 714.035 1106.847 726.121 1111.123 738.352 C 1106.074 739.02 1101.547 739.982 1100.726 733.234 C 1100.616 732.33 1098.802 731.49 1097.633 730.914 C 1096.962 730.583 1095.999 730.842 1095.167 730.835 C 1086.685 730.758 1086.685 730.758 1083.373 738.642 C 1081.219 738.642 1078.912 738.642 1076.201 738.457 M 1091.499 714.098 C 1090.494 717.36 1089.489 720.623 1088.401 724.152 C 1091.732 724.152 1094.564 724.152 1097.823 724.152 C 1096.307 719.375 1094.922 715.012 1093.292 709.877 C 1092.494 711.637 1092.092 712.524 1091.499 714.098 Z"></path>
  <path fill="#F69B32" opacity="1.000000" stroke="none" d="M 1049.516 650.306 C 1051.218 648.769 1052.654 647.47 1054.409 645.882 C 1049.449 641.499 1044.881 637.462 1039.496 632.703 C 1050.965 628.307 1061.654 624.21 1072.566 620.027 C 1074.056 624.341 1073.543 626.843 1069.341 628.228 C 1063.863 630.034 1058.539 632.31 1052.475 634.642 C 1056.657 638.415 1060.302 641.702 1064.411 645.409 C 1060.104 649.336 1055.979 653.097 1051.332 657.333 C 1057.72 659.987 1063.525 662.358 1069.295 664.809 C 1073.812 666.728 1073.793 666.773 1072.607 672.994 C 1061.5 668.528 1050.516 664.112 1038.829 659.413 C 1042.72 656.101 1045.986 653.322 1049.516 650.306 Z"></path>
  <path fill="#1B4572" opacity="1.000000" stroke="none" d="M 801.177 707.622 C 801.565 706.982 801.704 706.659 801.841 706.201 C 802.045 699.576 806.684 700.42 811.381 700.949 C 812.345 701.743 812.841 702.174 813.336 702.605 C 814.726 706.386 816.117 710.168 817.334 714.47 C 817.495 715.53 817.829 716.07 818.162 716.609 C 819.477 720.121 820.792 723.633 822.024 727.832 C 822.318 729.215 822.695 729.91 823.073 730.606 C 823.93 732.702 824.787 734.798 825.458 737.355 C 825.043 737.99 824.886 738.213 824.8 738.487 C 822.494 738.487 820.187 738.487 817.911 738.487 C 817.66 738.203 817.371 737.992 817.237 737.707 C 816.209 735.516 815.596 731.781 814.127 731.411 C 810.388 730.468 806.267 730.932 802.308 731.08 C 801.67 731.104 800.657 732.331 800.534 733.114 C 799.557 739.324 795.428 739.365 790.139 738.24 C 792.434 731.856 794.706 725.535 797.514 718.765 C 798.187 717.491 798.325 716.666 798.462 715.841 C 799.284 713.207 800.106 710.573 801.177 707.622 M 804.558 720.016 C 804.241 721.357 803.925 722.698 803.591 724.114 C 806.891 724.114 809.597 724.114 812.777 724.114 C 811.265 719.386 809.9 715.119 808.063 709.374 C 806.639 713.654 805.712 716.444 804.558 720.016 Z"></path>
  <path fill="#1C4673" opacity="1.000000" stroke="none" d="M 106.635 732.529 C 100.444 739.582 93.306 741.748 85.822 738.845 C 78.92 736.169 74.882 729.38 74.803 720.322 C 74.682 706.495 82.596 697.978 94.986 699.826 C 99.124 700.443 102.809 704.106 106.995 706.963 C 107.692 709.514 108.094 711.478 108.085 713.403 C 103.998 713.585 101.053 713.547 98.618 709.413 C 95.659 704.388 87.284 705.348 85.142 710.892 C 83.603 714.878 83.347 719.599 83.542 723.947 C 83.735 728.255 85.837 732.01 90.846 732.787 C 96.009 733.588 98.971 730.86 101.209 726.434 C 103.722 726.467 105.813 726.467 107.905 726.467 C 107.417 728.797 107.026 730.663 106.635 732.529 Z"></path>
  <path fill="#1B4572" opacity="1.000000" stroke="none" d="M 137.345 731.822 C 138.167 736.027 135.508 736.583 132.397 736.586 C 125.245 736.594 118.094 736.589 110.49 736.588 C 109.958 735.519 109.878 734.45 109.803 732.55 C 109.744 729.341 109.68 726.963 109.707 724.135 C 109.728 720.319 109.659 716.954 109.677 713.158 C 109.717 710.679 109.669 708.632 109.622 706.584 C 109.748 704.775 109.873 702.966 110.039 700.585 C 118.684 700.585 127.288 700.585 136.444 700.852 C 137.155 701.332 137.361 701.483 137.611 701.571 C 137.692 703.363 137.773 705.156 137.874 707.399 C 131.117 707.399 124.706 707.399 117.982 707.399 C 117.982 710.198 117.982 712.567 117.982 715.312 C 123.869 715.312 129.63 715.312 135.748 715.312 C 135.748 717.704 135.748 719.733 135.748 722.173 C 129.856 722.173 124.11 722.173 118.016 722.173 C 118.016 725.431 118.016 728.292 118.016 731.69 C 124.364 731.69 130.628 731.69 137.345 731.822 Z"></path>
  <path fill="#1DBEE0" opacity="1.000000" stroke="none" d="M 915.388 564.584 C 915.385 569.41 915.497 573.74 915.351 578.061 C 915.11 585.231 911.948 588.399 904.839 588.556 C 899.351 588.678 893.857 588.57 888.367 588.534 C 887.937 588.531 887.508 588.289 885.82 587.773 C 888.261 586.511 889.794 585.718 891.212 584.985 C 891.212 573.362 891.212 561.592 891.212 549.104 C 892.919 548.739 895.408 548.207 898.611 547.522 C 898.611 560.399 898.611 572.767 898.611 585.024 C 906.36 586.21 908.46 584.634 908.551 577.626 C 908.679 567.81 908.652 557.991 908.528 548.175 C 908.506 546.378 907.706 544.591 907.14 542.287 C 909.321 541.988 912.012 541.62 915.389 541.157 C 915.389 549.203 915.389 556.644 915.388 564.584 Z"></path>
  <path fill="#16416F" opacity="1.000000" stroke="none" d="M 694.346 731.877 C 694.782 733.87 694.776 735.699 694.778 737.921 C 686.098 738.431 677.409 738.547 668.259 738.575 C 667.798 726.219 667.798 713.952 667.799 701.228 C 675.822 700.71 683.843 700.65 692.351 700.927 C 693.279 701.712 693.721 702.16 694.163 702.607 C 694.274 704.026 694.385 705.445 694.546 707.51 C 687.939 707.51 681.765 707.51 674.744 707.629 C 672.631 710.555 671.024 713.406 674.906 715.547 C 680.233 715.53 685.561 715.514 691.438 715.791 C 692.153 716.323 692.374 716.488 692.65 716.578 C 692.733 718.209 692.816 719.839 692.942 722.318 C 686.862 722.318 681.125 722.318 674.556 722.551 C 672.722 725.871 671.291 729.004 674.65 731.635 C 681.068 731.661 687.486 731.687 694.346 731.877 Z"></path>
  <path fill="#1B4572" opacity="1.000000" stroke="none" d="M 173.245 707.383 C 172.794 705.385 172.794 703.489 172.795 701.187 C 182.576 700.78 192.356 700.78 202.484 700.78 C 202.484 702.841 202.484 704.744 202.484 707.228 C 198.906 707.397 195.2 707.572 191.069 707.767 C 191.069 718.063 191.069 728.134 191.069 738.425 C 188.233 738.425 185.849 738.425 183.004 738.425 C 183.004 728.092 183.004 718.027 183.004 707.485 C 179.606 707.485 176.652 707.485 173.245 707.383 Z"></path>
  <path fill="#F7A03C" opacity="1.000000" stroke="none" d="M 908.974 637.592 C 908.974 632.146 908.974 627.198 908.974 621.967 C 911.431 621.967 913.326 621.967 915.549 621.967 C 915.549 638.701 915.549 655.223 915.549 672.059 C 913.416 672.059 911.521 672.059 908.974 672.059 C 908.974 660.601 908.974 649.346 908.974 637.592 Z"></path>
  <path fill="#F7A03C" opacity="1.000000" stroke="none" d="M 437.713 632.615 C 437.713 628.834 437.713 625.549 437.713 621.978 C 440.156 621.978 442.054 621.978 444.287 621.978 C 444.287 638.689 444.287 655.218 444.287 672.062 C 442.161 672.062 440.268 672.062 437.713 672.062 C 437.713 658.935 437.713 646.023 437.713 632.615 Z"></path>
  <path fill="#214A76" opacity="1.000000" stroke="none" d="M 825.266 738.446 C 824.886 738.213 825.043 737.99 825.46 737.729 C 826.178 736.15 827.149 734.664 827.168 733.166 C 827.3 722.424 827.238 711.679 827.238 700.742 C 830.014 700.742 832.292 700.742 834.987 700.742 C 834.987 713.266 834.987 725.728 834.987 738.404 C 831.859 738.404 828.796 738.404 825.266 738.446 Z"></path>
  <path fill="#F69F3A" opacity="1.000000" stroke="none" d="M 465.407 648.893 C 472.057 650.915 475.273 654.526 475.51 660.079 C 475.731 665.254 473.419 669.093 468.822 671.396 C 464.468 673.576 458.809 672.538 455.471 668.961 C 451.975 665.214 450.975 660.774 453.048 656.042 C 455.284 650.939 459.397 648.542 465.407 648.893 M 469.652 658.595 C 468.35 655.36 465.772 653.555 462.599 654.74 C 460.653 655.466 458.624 657.738 457.964 659.752 C 456.856 663.134 459.718 666.385 463.234 666.688 C 467.349 667.043 469.495 664.666 469.652 658.595 Z"></path>
  <path fill="#1FBFE0" opacity="1.000000" stroke="none" d="M 1120.579 581.473 C 1120.579 583.932 1120.579 585.908 1120.579 588.233 C 1118.304 588.233 1116.396 588.233 1113.721 588.233 C 1113.721 585.448 1113.721 582.523 1113.721 579.597 C 1113.72 569.269 1113.788 558.941 1113.659 548.615 C 1113.635 546.698 1112.817 544.791 1112.267 542.461 C 1114.329 542.138 1117.052 541.713 1120.579 541.161 C 1120.579 554.821 1120.579 567.906 1120.579 581.473 Z"></path>
  <path fill="#25C0E1" opacity="1.000000" stroke="none" d="M 569.785 568.588 C 569.785 575.386 569.785 581.684 569.785 588.289 C 567.412 588.289 565.507 588.289 562.963 588.289 C 562.963 580.097 562.964 571.981 562.963 563.865 C 562.963 558.699 563.063 553.529 562.905 548.368 C 562.849 546.554 562.156 544.76 561.642 542.455 C 563.868 542.092 566.55 541.654 569.785 541.127 C 569.785 550.507 569.785 559.298 569.785 568.588 Z"></path>
  <path fill="#F69E39" opacity="1.000000" stroke="none" d="M 577.724 653.858 C 580.748 659.223 580.524 664.124 576.804 668.554 C 573.732 672.212 569.528 673.177 565.018 672.047 C 560.177 670.834 557.486 667.391 556.551 662.586 C 555.583 657.615 558.194 652.483 562.785 650.091 C 567.754 647.501 572.675 648.651 577.724 653.858 M 562.567 663.198 C 563.986 666.228 566.585 667.502 569.523 666.431 C 571.261 665.798 573.456 663.811 573.657 662.209 C 573.922 660.095 573.042 657.055 571.514 655.734 C 570.174 654.578 566.354 654.288 565.249 655.331 C 563.532 656.951 563.188 660.027 562.567 663.198 Z"></path>
  <path fill="#F69D37" opacity="1.000000" stroke="none" d="M 1112.867 651.407 C 1117.645 656.697 1118.408 662.843 1115.133 667.513 C 1112.065 671.89 1106.545 673.585 1101.419 671.724 C 1096.543 669.954 1093.317 664.825 1093.898 659.497 C 1094.937 649.971 1105.541 645.662 1112.867 651.407 M 1108.497 655.021 C 1105.366 653.915 1102.149 653.998 1100.694 657.192 C 1099.812 659.13 1099.743 662.418 1100.861 664.008 C 1101.963 665.576 1105.136 666.652 1107.2 666.386 C 1112.078 665.759 1112.918 660.32 1108.497 655.021 Z"></path>
  <path fill="#22C0E0" opacity="1.000000" stroke="none" d="M 924.825 550.809 C 924.522 547.862 924.219 545.384 923.854 542.406 C 925.756 542.127 928.448 541.732 931.429 541.295 C 931.429 557.319 931.429 572.724 931.429 588.354 C 929.223 588.354 927.31 588.354 924.825 588.354 C 924.825 575.835 924.825 563.556 924.825 550.809 Z"></path>
  <path fill="#F69D36" opacity="1.000000" stroke="none" d="M 88.921 653.565 C 92.242 659.815 91.819 664.913 87.888 668.965 C 84.476 672.481 78.995 673.475 74.565 671.381 C 69.989 669.219 67.316 664.283 68.016 659.04 C 68.645 654.33 71.343 651.032 75.732 649.495 C 80.797 647.721 85.196 649.19 88.921 653.565 M 73.844 658.552 C 73.237 662.366 73.864 665.63 78.236 666.58 C 81.522 667.295 84.666 666.149 85.117 662.729 C 85.426 660.391 84.503 656.834 82.812 655.519 C 79.747 653.137 76.259 654.045 73.844 658.552 Z"></path>
  <path fill="#1ABDDF" opacity="1.000000" stroke="none" d="M 296.895 571.587 C 296.895 577.367 296.895 582.647 296.895 588.251 C 294.582 588.251 292.682 588.251 290.434 588.251 C 289.534 573.227 291.085 558.096 289.518 542.46 C 290.896 542.223 293.563 541.764 296.895 541.191 C 296.895 551.585 296.895 561.336 296.895 571.587 Z"></path>
  <path fill="#F69D36" opacity="1.000000" stroke="none" d="M 212.35 657.403 C 213.409 663.405 211.936 668.118 206.787 670.968 C 202.531 673.324 198.122 673.067 194.137 670.127 C 189.982 667.062 188.41 661.685 190.018 656.751 C 191.442 652.38 195.821 649.076 200.509 648.834 C 205.8 648.56 209.546 651.174 212.35 657.403 M 198.171 655.031 C 197.235 657.603 195.648 660.171 195.635 662.747 C 195.628 664.046 198.375 666.246 200.055 666.432 C 201.985 666.647 205.035 665.632 205.916 664.151 C 206.976 662.368 207.232 658.693 206.078 657.362 C 204.616 655.677 201.384 655.527 198.171 655.031 Z"></path>
  <path fill="#F69D37" opacity="1.000000" stroke="none" d="M 756.922 672.413 C 749.922 671.061 746.466 667.824 745.823 662.387 C 745.165 656.826 747.483 652.325 752.209 649.985 C 756.621 647.802 761.979 648.662 765.566 652.208 C 769.142 655.743 769.84 660.133 768.325 664.643 C 766.623 669.712 762.751 672.317 756.922 672.413 M 757.292 654.434 C 753.092 654.501 751.225 657.092 751.302 660.829 C 751.369 664.072 753.098 666.487 756.796 666.721 C 760.311 666.943 762.716 665.293 763.34 661.951 C 764.087 657.951 762.361 655.196 757.292 654.434 Z"></path>
  <path fill="#F69D36" opacity="1.000000" stroke="none" d="M 324.949 667.505 C 321.156 672.161 316.608 673.48 311.354 671.698 C 307.091 670.253 304.499 667.15 303.891 662.595 C 303.182 657.278 305.279 652.736 309.651 650.339 C 313.996 647.957 318.279 648.262 322.296 651.14 C 326.292 654.004 327.923 658.949 326.574 664.013 C 326.28 665.116 325.641 666.128 324.949 667.505 M 320.65 663.908 C 322.175 659.024 320.941 655.055 317.172 654.828 C 314.842 654.688 311.25 655.985 310.303 657.751 C 309.32 659.584 309.985 663.533 311.464 665.178 C 313.952 667.947 317.453 667.426 320.65 663.908 Z"></path>
  <path fill="#F6992E" opacity="1.000000" stroke="none" d="M 1086.038 624.845 C 1086.042 640.759 1086.042 656.198 1086.042 671.973 C 1083.86 671.973 1082.123 671.973 1079.991 671.973 C 1079.991 655.401 1079.991 638.888 1079.991 622.002 C 1082.347 622.2 1085.355 619.81 1086.038 624.845 Z"></path>
  <path fill="#1B4572" opacity="1.000000" stroke="none" d="M 1040.729 738.557 C 1038.287 738.557 1035.845 738.557 1033.101 738.557 C 1033.101 725.98 1033.101 713.66 1033.101 700.587 C 1035.348 700.587 1037.566 700.587 1040.277 701.081 C 1040.757 713.903 1040.743 726.23 1040.729 738.557 Z"></path>
  <path fill="#1B4572" opacity="1.000000" stroke="none" d="M 920.689 738.537 C 918.239 738.537 915.788 738.537 913.058 738.537 C 913.058 725.985 913.058 713.645 913.058 700.598 C 915.283 700.598 917.515 700.598 920.227 701.097 C 920.701 713.91 920.695 726.223 920.689 738.537 Z"></path>
  <path fill="#E7EBEF" opacity="1.000000" stroke="none" d="M 728.785 705.786 C 727.192 715.804 729.714 719.689 739.79 722.199 C 742.525 722.88 745.376 723.321 747.939 724.418 C 751.574 725.974 751.784 730.056 748.594 732.296 C 745.422 734.523 738.477 734.151 736.714 730.838 C 734.479 726.637 731.441 727.302 727.099 727.749 C 728.131 730.332 729.005 732.523 729.989 735.081 C 729.164 735.503 728.231 735.557 726.949 735.644 C 726.465 733.389 726.556 731.059 726.141 728.823 C 725.602 725.919 724.661 723.091 723.694 719.488 C 727.032 716.969 728.087 712.642 726.554 707.153 C 727.15 706.423 727.794 706.133 728.785 705.786 Z"></path>
  <path fill="#F69D36" opacity="1.000000" stroke="none" d="M 946.662 659.16 C 946.769 667.519 942.156 672.412 934.772 672.24 C 928.01 672.081 923.197 666.852 923.713 660.194 C 924.077 655.501 926.731 652.565 931.025 651.05 C 935.856 649.345 941.127 650.675 944.191 654.448 C 945.214 655.707 945.806 657.315 946.662 659.16 M 934.497 667.602 C 940.92 668.033 943.496 661.058 940.535 658.009 C 938.929 656.355 935.853 654.802 933.864 655.22 C 931.896 655.634 929.595 658.34 928.989 660.479 C 928.009 663.941 930.327 666.351 934.497 667.602 Z"></path>
  <path fill="#F69D37" opacity="1.000000" stroke="none" d="M 942.928 624.383 C 947.62 629.648 948.251 634.529 945.085 638.946 C 941.959 643.308 935.987 645.011 930.87 643 C 925.963 641.072 923.333 636.333 923.871 631.105 C 924.547 624.533 934.291 618.219 942.928 624.383 M 932.487 638.418 C 937.351 639.729 941.495 638.009 941.495 634.012 C 941.495 631.675 939.918 628.019 938.141 627.342 C 936.025 626.535 932.12 627.46 930.449 629.11 C 927.556 631.967 928.678 635.465 932.487 638.418 Z"></path>
  <path fill="#ECF0F3" opacity="1.000000" stroke="none" d="M 346.812 730.603 C 346.865 725.161 347.227 719.842 347.643 714.063 C 348.061 713.581 348.426 713.561 349.066 713.544 C 351.078 719.055 355.698 720.802 360.605 722.128 C 363.157 722.817 365.916 723.015 368.251 724.126 C 369.771 724.849 371.763 726.933 371.627 728.202 C 371.444 729.9 369.729 732.034 368.103 732.858 C 364.006 734.935 359.893 733.018 356.387 729.286 C 355.081 727.896 352.149 727.971 349.92 727.636 C 349.748 727.61 349.268 729.631 348.923 731.144 C 348.316 731.301 347.719 731.014 346.812 730.603 Z"></path>
  <path fill="#2DC2E2" opacity="1.000000" stroke="none" d="M 659.845 547.292 C 656.162 547.528 652.841 547.577 649.52 547.583 C 649.055 547.583 648.59 547.368 648.488 547.343 C 648.488 545.165 648.685 543.147 648.447 541.182 C 647.972 537.258 650.978 533.853 655.046 534.54 C 656.686 534.817 658.181 536.46 659.483 537.744 C 659.706 537.964 658.622 539.509 658.142 540.442 C 656.647 539.569 655.151 538.696 653.646 537.817 C 651.985 541.302 653.079 543.779 657.087 544.862 C 658.243 545.174 659.173 546.325 659.845 547.292 Z"></path>
  <path fill="#2DC2E2" opacity="1.000000" stroke="none" d="M 894.552 607.558 C 891.635 607.558 889.158 607.558 887.313 607.558 C 887.313 605.39 887.577 603.533 887.261 601.78 C 886.489 597.489 889.513 593.822 893.722 594.751 C 895.261 595.091 896.503 596.996 897.697 598.349 C 897.822 598.49 896.701 599.732 896.158 600.464 C 894.937 599.425 893.717 598.387 892.508 597.359 C 889.754 601.619 891.226 604.049 898.64 607.031 C 897.423 607.207 896.207 607.382 894.552 607.558 Z"></path>
  <path fill="#123E6D" opacity="1.000000" stroke="none" d="M 541.764 718.349 C 545.856 718.31 549.948 718.272 554.494 718.784 C 554.924 720.774 554.9 722.212 554.876 723.65 C 550.819 723.706 546.762 723.762 542.174 723.322 C 541.684 721.334 541.724 719.841 541.764 718.349 Z"></path>
  <path fill="#25C0E1" opacity="1.000000" stroke="none" d="M 232.709 549.751 C 234.181 551.202 235.733 552.503 236.198 554.117 C 236.42 554.885 234.755 556.815 233.611 557.184 C 232.489 557.547 230.61 556.98 229.65 556.146 C 227.273 554.077 228.448 551.474 232.709 549.751 Z"></path>
  <path fill="#1FBFE0" opacity="1.000000" stroke="none" d="M 963.943 541.773 C 965.562 543.308 967.132 544.747 967.88 546.531 C 968.084 547.017 965.89 549.257 964.66 549.385 C 963.454 549.51 960.877 547.717 960.985 547.209 C 961.389 545.309 962.647 543.591 963.943 541.773 Z"></path>
  <path fill="#DCE2E9" opacity="1.000000" stroke="none" d="M 588.256 728.595 C 587.717 719.601 587.656 710.617 587.573 701.174 C 588.111 700.696 588.67 700.679 589.647 700.695 C 590.029 709.756 589.991 718.783 589.823 728.19 C 589.374 728.582 589.054 728.594 588.256 728.595 Z"></path>
  <path fill="#22C0E0" opacity="1.000000" stroke="none" d="M 613.513 596.341 C 615.757 596.474 617.831 596.662 619.683 597.405 C 620.009 597.536 619.878 600.705 619.119 601.209 C 617.848 602.055 614.881 602.608 614.447 601.995 C 613.465 600.609 613.592 598.437 613.513 596.341 Z"></path>
  <path fill="#25C0E1" opacity="1.000000" stroke="none" d="M 336.502 598.068 C 335.347 599.846 334.328 601.668 332.781 602.474 C 332.145 602.805 329.665 601.164 329.307 600.019 C 328.944 598.86 330.282 595.946 330.679 595.982 C 332.63 596.157 334.516 597.058 336.502 598.068 Z"></path>
  <path fill="#22C0E0" opacity="1.000000" stroke="none" d="M 269.648 595.71 C 271.77 596.251 273.757 596.706 275.24 597.828 C 275.669 598.152 275.053 600.843 274.179 601.627 C 273.29 602.425 271.183 602.835 270.15 602.323 C 267.031 600.776 267.025 598.365 269.648 595.71 Z"></path>
  <path fill="#1FBFE0" opacity="1.000000" stroke="none" d="M 711.714 542.891 C 710.816 544.85 710.047 546.8 708.617 547.847 C 708.058 548.255 705.369 546.95 704.829 545.847 C 704.303 544.773 705.202 541.712 705.614 541.685 C 707.576 541.56 709.585 542.172 711.714 542.891 Z"></path>
  <path fill="#25C0E1" opacity="1.000000" stroke="none" d="M 810.855 545.829 C 811.276 543.833 811.536 541.859 812.627 540.614 C 813.146 540.022 815.651 540.355 816.521 541.113 C 817.406 541.884 818.054 543.959 817.641 544.999 C 816.22 548.572 813.708 548.408 810.855 545.829 Z"></path>
  <path fill="#25C0E1" opacity="1.000000" stroke="none" d="M 807.305 544.471 C 805.53 545.697 803.893 546.946 802.107 547.216 C 801.523 547.305 799.842 544.779 799.959 543.574 C 800.078 542.35 802.399 540.163 802.715 540.333 C 804.449 541.264 805.862 542.791 807.305 544.471 Z"></path>
  <path fill="#25C0E1" opacity="1.000000" stroke="none" d="M 92.482 542.377 C 94.496 541.637 96.442 540.727 98.156 541.05 C 98.83 541.177 99.618 544.267 99.169 545.612 C 98.84 546.6 95.874 547.836 95.32 547.398 C 93.943 546.308 93.274 544.325 92.482 542.377 Z"></path>
  <path fill="#22C0E0" opacity="1.000000" stroke="none" d="M 602.006 600.279 C 602.929 598.373 603.733 596.469 605.167 595.467 C 605.731 595.073 608.554 596.462 608.827 597.458 C 609.196 598.797 608.257 601.781 607.589 601.869 C 605.857 602.099 603.966 601.131 602.006 600.279 Z"></path>
  <path fill="#1FBFE0" opacity="1.000000" stroke="none" d="M 119.187 601.513 C 119.3 599.396 119.314 597.328 120.242 595.824 C 120.578 595.28 123.782 595.551 124.454 596.409 C 125.308 597.498 125.526 600.676 124.948 600.991 C 123.424 601.822 121.322 601.593 119.187 601.513 Z"></path>
  <path fill="#1FBFE0" opacity="1.000000" stroke="none" d="M 344.395 602.577 C 342.582 601.443 340.838 600.426 339.907 598.911 C 339.617 598.438 341.397 595.781 342.457 595.619 C 343.842 595.409 345.453 596.685 346.967 597.321 C 346.237 599.048 345.507 600.776 344.395 602.577 Z"></path>
  <path fill="#1FBFE0" opacity="1.000000" stroke="none" d="M 510.57 602.737 C 508.995 601.308 507.478 599.989 506.847 598.332 C 506.65 597.816 508.887 595.542 509.95 595.583 C 511.368 595.639 512.727 597.171 514.111 598.068 C 513.064 599.618 512.017 601.168 510.57 602.737 Z"></path>
  <path fill="#2DC2E2" opacity="1.000000" stroke="none" d="M 768.923 548.693 C 767.81 547.08 766.607 545.53 766.569 543.951 C 766.554 543.313 769.139 542.018 770.437 542.139 C 771.407 542.229 773.166 544.613 772.91 545.097 C 772.146 546.545 770.564 547.561 768.923 548.693 Z"></path>
  <path fill="#2DC2E2" opacity="1.000000" stroke="none" d="M 760.086 548.453 C 758.173 547.774 756.385 547.185 755.194 545.996 C 754.847 545.65 755.915 542.877 756.849 542.505 C 758.051 542.025 760.93 542.596 761.047 543.147 C 761.388 544.754 760.715 546.576 760.086 548.453 Z"></path>
  <path fill="#1FBFE0" opacity="1.000000" stroke="none" d="M 110.878 602.695 C 109.573 601.004 108.368 599.411 108.006 597.645 C 107.909 597.174 110.465 595.48 111.665 595.611 C 112.855 595.742 114.968 597.95 114.767 598.403 C 114.045 600.037 112.518 601.315 110.878 602.695 Z"></path>
  <path fill="#25C0E1" opacity="1.000000" stroke="none" d="M 761.284 535.49 C 763.191 535.307 764.953 535.222 766.54 535.707 C 766.876 535.81 767.021 538.306 766.443 539.134 C 765.869 539.957 763.461 540.661 763.263 540.391 C 762.279 539.044 761.759 537.358 761.284 535.49 Z"></path>
  <path fill="#FAFBFC" opacity="1.000000" stroke="none" d="M 109.617 724.585 C 109.68 726.963 109.744 729.341 109.715 732.156 C 108.875 732.583 108.128 732.574 107.008 732.546 C 107.026 730.663 107.417 728.797 107.905 726.467 C 105.813 726.467 103.722 726.467 101.309 726.063 C 103.865 725.3 106.741 724.943 109.617 724.585 Z"></path>
  <path fill="#1D4774" opacity="1.000000" stroke="none" d="M 674.536 731.19 C 671.291 729.004 672.722 725.871 674.071 722.638 C 674.42 725.243 674.421 727.994 674.536 731.19 Z"></path>
  <path fill="#1D4774" opacity="1.000000" stroke="none" d="M 674.733 715.13 C 671.024 713.406 672.631 710.555 674.265 707.643 C 674.61 709.93 674.585 712.322 674.733 715.13 Z"></path>
  <path fill="#A0B2C4" opacity="1.000000" stroke="none" d="M 555.227 723.665 C 554.9 722.212 554.924 720.774 554.955 718.904 C 555.405 718.529 555.847 718.585 556.626 718.617 C 557.097 720.082 557.232 721.57 557.165 723.319 C 556.501 723.613 556.04 723.647 555.227 723.665 Z"></path>
  <path fill="#A0B2C4" opacity="1.000000" stroke="none" d="M 541.606 718.135 C 541.724 719.841 541.684 721.334 541.712 723.269 C 541.287 723.952 540.795 724.193 540.021 724.49 C 539.722 722.488 539.705 720.429 539.801 717.94 C 540.426 717.648 540.937 717.785 541.606 718.135 Z"></path>
  <path fill="#FAFBFC" opacity="1.000000" stroke="none" d="M 109.206 706.594 C 109.669 708.632 109.717 710.679 109.402 713.131 C 108.859 713.505 108.677 713.474 108.496 713.443 C 108.094 711.478 107.692 709.514 107.212 707.176 C 107.687 706.737 108.238 706.67 109.206 706.594 Z"></path>
  <path fill="#1D4774" opacity="1.000000" stroke="none" d="M 694.299 702.317 C 693.721 702.16 693.279 701.712 692.813 701.009 C 693.338 701.178 693.887 701.602 694.299 702.317 Z"></path>
  <path fill="#214A76" opacity="1.000000" stroke="none" d="M 818.191 716.345 C 817.829 716.07 817.495 715.53 817.338 714.839 C 817.749 715.152 817.985 715.617 818.191 716.345 Z"></path>
  <path fill="#214A76" opacity="1.000000" stroke="none" d="M 798.225 716.041 C 798.325 716.666 798.187 717.491 797.752 718.46 C 797.631 717.817 797.809 717.029 798.225 716.041 Z"></path>
  <path fill="#214A76" opacity="1.000000" stroke="none" d="M 813.339 702.323 C 812.841 702.174 812.345 701.743 811.819 701.045 C 812.306 701.199 812.824 701.62 813.339 702.323 Z"></path>
  <path fill="#214A76" opacity="1.000000" stroke="none" d="M 823.106 730.303 C 822.695 729.91 822.318 729.215 822.014 728.192 C 822.439 728.575 822.789 729.288 823.106 730.303 Z"></path>
  <path fill="#1D4774" opacity="1.000000" stroke="none" d="M 787.037 738.59 C 787.072 738.241 787.341 737.957 787.885 737.561 C 787.864 737.851 787.568 738.253 787.037 738.59 Z"></path>
  <path fill="#1D4774" opacity="1.000000" stroke="none" d="M 692.703 716.307 C 692.374 716.488 692.153 716.323 691.895 715.896 C 692.121 715.817 692.438 715.927 692.703 716.307 Z"></path>
  <path fill="#1C4673" opacity="1.000000" stroke="none" d="M 137.654 701.319 C 137.361 701.483 137.155 701.332 136.905 700.95 C 137.109 700.875 137.403 700.971 137.654 701.319 Z"></path>
  <path fill="#1D4774" opacity="1.000000" stroke="none" d="M 780.628 737.882 C 780.926 737.734 781.22 737.904 781.649 738.294 C 781.397 738.409 781.01 738.304 780.628 737.882 Z"></path>
  <path fill="#FEF9F2" opacity="1.000000" stroke="none" d="M 411.858 639.561 C 410.99 639.759 409.963 639.912 409.703 639.536 C 407.192 635.895 404.811 632.164 401.915 627.729 C 408.107 627.729 413.279 627.729 419.517 627.729 C 416.815 631.908 414.435 635.589 411.858 639.561 Z"></path>
  <path fill="#F8F9FA" opacity="1.000000" stroke="none" d="M 333.029 706.907 C 340.332 711.06 342.474 723.702 337.25 729.766 C 333.031 734.665 324.344 734.175 321.451 728.531 C 318.382 722.545 318.536 716.212 322.05 710.424 C 324.395 706.563 328.431 706.004 333.029 706.907 Z"></path>
  <path fill="#F69B33" opacity="1.000000" stroke="none" d="M 1008.789 652.813 C 1003.379 653.786 1000.436 652.191 999.88 648.139 C 999.362 644.359 1000.802 641.571 1004.707 640.671 C 1008.389 639.823 1012.286 642.261 1012.199 645.926 C 1012.145 648.185 1010.218 650.399 1008.789 652.813 Z"></path>
  <path fill="#F69C34" opacity="1.000000" stroke="none" d="M 662.851 644.553 C 662.021 647.458 661.665 650.673 659.871 652.335 C 658.681 653.438 654.813 653.131 653.276 651.964 C 651.712 650.777 650.691 647.633 651.004 645.586 C 651.279 643.789 653.446 641.599 655.286 640.878 C 658.378 639.666 661.071 641.205 662.851 644.553 Z"></path>
  <path fill="#F69C34" opacity="1.000000" stroke="none" d="M 240.036 652.505 C 238.921 649.813 237.329 647.19 237.649 644.827 C 237.866 643.23 240.7 641.002 242.5 640.866 C 244.534 640.712 247.723 642.063 248.579 643.711 C 249.572 645.622 249.35 648.999 248.257 650.963 C 246.67 653.815 243.496 654.299 240.036 652.505 Z"></path>
  <path fill="#F69B33" opacity="1.000000" stroke="none" d="M 352.933 642.603 C 358.448 639.288 363.598 640.815 363.71 645.836 C 363.761 648.13 362.101 651.411 360.209 652.51 C 358.581 653.456 354.975 652.665 353.221 651.344 C 350.365 649.192 350.589 645.876 352.933 642.603 Z"></path>
</svg>
